[img]http://leetleech.org/images/74809900376644235383.png[/img]
[code]
Insidious 2011 R5 LiNE XViD - IMAGiNE

Ripper ...........: IMAGNE                                        IMDB 7.4/10  Rating.......:7.8/10                             
Video Codec.......: XVID                                         Release Date......:23/04/11
Audio Codec.......:MP3                                           Theatre Date......:01/04/11
Audio Bitrate.....:128                                              Runtime.......:1h 38mn
Subtitles.........:NIL                                                 Language..........:ENGLISH
Resolution...... 720 x 304                                     IMDb URL.......... http://www.imdb.com/title/tt1591095/

DETAILS:

Video
ID                               : 0
Format                           : MPEG-4 Visual
Format profile                   : Advanced Simple@L5
Format settings, BVOP            : 2
Format settings, QPel            : No
Format settings, GMC             : No warppoints
Format settings, Matrix          : Default (MPEG)
Muxing mode                      : Packed bitstream
Codec ID                         : XVID
Codec ID/Hint                    : XviD
Duration                         : 1h 38mn
Bit rate                         : 1 861 Kbps
Width                            : 720 pixels
Height                           : 304 pixels
Display aspect ratio             : 2.35:1
Frame rate                       : 25.000 fps
Color space                      : YUV
Chroma subsampling               : 4:2:0
Bit depth                        : 8 bits
Scan type                        : Progressive
Compression mode                 : Lossy
Bits/(Pixel*Frame)               : 0.340
Stream size                      : 1.27 GiB (93%)
Writing library                  : XviD 61

Audio
ID                               : 1
Format                           : MPEG Audio
Format version                   : Version 1
Format profile                   : Layer 3
Mode                             : Joint stereo
Mode extension                   : MS Stereo
Codec ID                         : 55
Codec ID/Hint                    : MP3
Duration                         : 1h 38mn
Bit rate mode                    : Constant
Bit rate                         : 128 Kbps
Channel(s)                       : 2 channels
Sampling rate                    : 44.1 KHz
Compression mode                 : Lossy
Stream size                      : 89.8 MiB (6%)
Alignment                        : Split accross interleaves
Interleave, duration             : 40 ms (1.00 video frame)
Interleave, preload duration     : 500 ms
Writing library                  : LAME3.98r
Encoding settings                : -m j -V 4 -q 2 -lowpass 17 -b 128

SOURCES:
VIDEO: .......... Astral.2010.D.DVD.ELEKTRI4KA Thanx 
AUDIO: .......... Thanx Matey 

NOTES:
IMAGiNE bringing you another release..........

Insidious R5.........

Alright folks here we have a very nice R5, 

source was good but had some color issues.....

So first we made a script to crop, resize and sharpen then it was a matter of balancing out the color as the source video had a green tint to it...

Audio was very nice LiNE which we filtered, synced and muxed to our encode 

Enjoy Folks! 
[/CODE]
screens:
[img]http://img818.imageshack.us/img818/9083/92195170.jpg[/img]
[img]http://img824.imageshack.us/img824/7343/49775561.jpg[/img]
[img]http://img684.imageshack.us/img684/6095/27037330.jpg[/img]
[img]http://img705.imageshack.us/img705/3871/68657133.jpg[/img]
[img]http://img585.imageshack.us/img585/1292/59199787.jpg[/img]